REM DIRINDEX 1\8,1\2\11,1\3\12,1\3\14,1\5\15,1\5\16,1\6\17,1\6\18,1\4\19,1\4\20,1\4\21,1\4\22,1\7\23,1\7\24,1\7\25,1\2\9\26,1\2\9\27,1\2\10\28,1\2\10\29,1\2\10\30,1\2\10\31,1\2\10\32,1\3\13\33,1\3\13\34,1\3\13\35
REM DIRNAME folder01,folder02,folder03,folder04,folder05,folder06,folder07,folder08,folder09,folder10,folder11,folder12,folder13,folder14,folder15,folder16,folder17,folder18,folder19,folder20,folder21,folder22,folder23,folder24,folder25,folder26,folder27,folder28,folder29,folder30,folder31,folder32,folder33,folder34,folder35
TITLE ""
FILE "141 141_例文UNIT4_SET1.mp3" MP3
  TRACK 01 AUDIO
    TITLE "22:cjc123_3463"
    INDEX 01 00:00:00
  TRACK 02 AUDIO
    TITLE "0:"
    INDEX 01 00:02:47
  TRACK 03 AUDIO
    TITLE "19:cjc123_3464"
    INDEX 01 00:03:25
  TRACK 04 AUDIO
    TITLE "0:"
    INDEX 01 00:06:73
  TRACK 05 AUDIO
    TITLE "20:cjc123_3465"
    INDEX 01 00:07:25
  TRACK 06 AUDIO
    TITLE "0:"
    INDEX 01 00:11:03
  TRACK 07 AUDIO
    TITLE "21:cjc123_3466"
    INDEX 01 00:11:33
  TRACK 08 AUDIO
    TITLE "0:"
    INDEX 01 00:15:03
  TRACK 09 AUDIO
    TITLE "19:cjc123_3467"
    INDEX 01 00:15:50
  TRACK 10 AUDIO
    TITLE "0:"
    INDEX 01 00:18:58
  TRACK 11 AUDIO
    TITLE "20:cjc123_3468"
    INDEX 01 00:19:24
  TRACK 12 AUDIO
    TITLE "0:"
    INDEX 01 00:23:51
  TRACK 13 AUDIO
    TITLE "21:cjc123_3469"
    INDEX 01 00:24:02
  TRACK 14 AUDIO
    TITLE "0:"
    INDEX 01 00:27:10
  TRACK 15 AUDIO
    TITLE "19:cjc123_3470"
    INDEX 01 00:27:67
  TRACK 16 AUDIO
    TITLE "0:"
    INDEX 01 00:32:33
  TRACK 17 AUDIO
    TITLE "20:cjc123_3471"
    INDEX 01 00:33:05
  TRACK 18 AUDIO
    TITLE "0:"
    INDEX 01 00:37:30
  TRACK 19 AUDIO
    TITLE "21:cjc123_3472"
    INDEX 01 00:37:63
  TRACK 20 AUDIO
    TITLE "0:"
    INDEX 01 00:42:31
  TRACK 21 AUDIO
    TITLE "19:cjc123_3473"
    INDEX 01 00:43:25
  TRACK 22 AUDIO
    TITLE "0:"
    INDEX 01 00:48:30
  TRACK 23 AUDIO
    TITLE "20:cjc123_3474"
    INDEX 01 00:48:59
  TRACK 24 AUDIO
    TITLE "0:"
    INDEX 01 00:53:57
  TRACK 25 AUDIO
    TITLE "21:cjc123_3475"
    INDEX 01 00:54:34
  TRACK 26 AUDIO
    TITLE "0:"
    INDEX 01 00:59:39
  TRACK 27 AUDIO
    TITLE "19:cjc123_3476"
    INDEX 01 01:00:10
  TRACK 28 AUDIO
    TITLE "0:"
    INDEX 01 01:03:55
  TRACK 29 AUDIO
    TITLE "20:cjc123_3477"
    INDEX 01 01:04:17
  TRACK 30 AUDIO
    TITLE "0:"
    INDEX 01 01:08:27
  TRACK 31 AUDIO
    TITLE "21:cjc123_3478"
    INDEX 01 01:08:60
  TRACK 32 AUDIO
    TITLE "0:"
    INDEX 01 01:12:28
  TRACK 33 AUDIO
    TITLE "19:cjc123_3479"
    INDEX 01 01:13:06
  TRACK 34 AUDIO
    TITLE "0:"
    INDEX 01 01:16:30
  TRACK 35 AUDIO
    TITLE "20:cjc123_3480"
    INDEX 01 01:16:73
  TRACK 36 AUDIO
    TITLE "0:"
    INDEX 01 01:20:49
  TRACK 37 AUDIO
    TITLE "21:cjc123_3481"
    INDEX 01 01:21:00
  TRACK 38 AUDIO
    TITLE "0:"
    INDEX 01 01:24:24
  TRACK 39 AUDIO
    TITLE "19:cjc123_3482"
    INDEX 01 01:25:25
  TRACK 40 AUDIO
    TITLE "0:"
    INDEX 01 01:30:60
  TRACK 41 AUDIO
    TITLE "20:cjc123_3483"
    INDEX 01 01:31:14
  TRACK 42 AUDIO
    TITLE "0:"
    INDEX 01 01:38:16
  TRACK 43 AUDIO
    TITLE "21:cjc123_3484"
    INDEX 01 01:38:43
  TRACK 44 AUDIO
    TITLE "0:"
    INDEX 01 01:44:07
  TRACK 45 AUDIO
    TITLE "19:cjc123_3485"
    INDEX 01 01:44:52
  TRACK 46 AUDIO
    TITLE "0:"
    INDEX 01 01:49:73
  TRACK 47 AUDIO
    TITLE "20:cjc123_3486"
    INDEX 01 01:50:33
  TRACK 48 AUDIO
    TITLE "0:"
    INDEX 01 01:56:24
  TRACK 49 AUDIO
    TITLE "21:cjc123_3487"
    INDEX 01 01:56:55
  TRACK 50 AUDIO
    TITLE "0:"
    INDEX 01 02:01:72
  TRACK 51 AUDIO
    TITLE "19:cjc123_3488"
    INDEX 01 02:02:46
  TRACK 52 AUDIO
    TITLE "0:"
    INDEX 01 02:06:30
  TRACK 53 AUDIO
    TITLE "20:cjc123_3489"
    INDEX 01 02:06:69
  TRACK 54 AUDIO
    TITLE "0:"
    INDEX 01 02:10:69
  TRACK 55 AUDIO
    TITLE "21:cjc123_3490"
    INDEX 01 02:11:31
  TRACK 56 AUDIO
    TITLE "0:"
    INDEX 01 02:15:13
  TRACK 57 AUDIO
    TITLE "19:cjc123_3491"
    INDEX 01 02:15:60
  TRACK 58 AUDIO
    TITLE "0:"
    INDEX 01 02:20:12
  TRACK 59 AUDIO
    TITLE "20:cjc123_3492"
    INDEX 01 02:20:52
  TRACK 60 AUDIO
    TITLE "0:"
    INDEX 01 02:26:09
  TRACK 61 AUDIO
    TITLE "21:cjc123_3493"
    INDEX 01 02:26:37
  TRACK 62 AUDIO
    TITLE "0:"
    INDEX 01 02:30:64
  TRACK 63 AUDIO
    TITLE "19:cjc123_3494"
    INDEX 01 02:31:50
  TRACK 64 AUDIO
    TITLE "0:"
    INDEX 01 02:37:13
  TRACK 65 AUDIO
    TITLE "20:cjc123_3495"
    INDEX 01 02:37:42
  TRACK 66 AUDIO
    TITLE "0:"
    INDEX 01 02:44:36
  TRACK 67 AUDIO
    TITLE "21:cjc123_3496"
    INDEX 01 02:44:66
  TRACK 68 AUDIO
    TITLE "0:"
    INDEX 01 02:50:31
  TRACK 69 AUDIO
    TITLE "19:cjc123_3497"
    INDEX 01 02:51:03
  TRACK 70 AUDIO
    TITLE "0:"
    INDEX 01 02:54:27
  TRACK 71 AUDIO
    TITLE "20:cjc123_3498"
    INDEX 01 02:54:60
  TRACK 72 AUDIO
    TITLE "0:"
    INDEX 01 03:00:06
  TRACK 73 AUDIO
    TITLE "21:cjc123_3499"
    INDEX 01 03:00:34
  TRACK 74 AUDIO
    TITLE "0:"
    INDEX 01 03:03:57
  TRACK 75 AUDIO
    TITLE "19:cjc123_3500"
    INDEX 01 03:04:33
  TRACK 76 AUDIO
    TITLE "0:"
    INDEX 01 03:09:72
  TRACK 77 AUDIO
    TITLE "20:cjc123_3501"
    INDEX 01 03:10:24
  TRACK 78 AUDIO
    TITLE "0:"
    INDEX 01 03:15:68
  TRACK 79 AUDIO
    TITLE "21:cjc123_3502"
    INDEX 01 03:16:21
  TRACK 80 AUDIO
    TITLE "0:"
    INDEX 01 03:21:57
  TRACK 81 AUDIO
    TITLE "19:cjc123_3503"
    INDEX 01 03:22:25
  TRACK 82 AUDIO
    TITLE "0:"
    INDEX 01 03:27:23
  TRACK 83 AUDIO
    TITLE "20:cjc123_3504"
    INDEX 01 03:27:58
  TRACK 84 AUDIO
    TITLE "0:"
    INDEX 01 03:32:06
  TRACK 85 AUDIO
    TITLE "21:cjc123_3505"
    INDEX 01 03:32:36
  TRACK 86 AUDIO
    TITLE "0:"
    INDEX 01 03:37:33
  TRACK 87 AUDIO
    TITLE "19:cjc123_3506"
    INDEX 01 03:38:09
  TRACK 88 AUDIO
    TITLE "0:"
    INDEX 01 03:41:40
  TRACK 89 AUDIO
    TITLE "20:cjc123_3507"
    INDEX 01 03:42:01
  TRACK 90 AUDIO
    TITLE "0:"
    INDEX 01 03:45:60
  TRACK 91 AUDIO
    TITLE "21:cjc123_3508"
    INDEX 01 03:46:10
  TRACK 92 AUDIO
    TITLE "0:"
    INDEX 01 03:49:42
